<?xml version="1.0" encoding="UTF-8"?>
<svg version="1.1" xmlns="http://www.w3.org/2000/svg" width="869" height="839">
<path d="M0 0 C2.93885125 1.3081843 3.83082906 2.39699487 6 5 C7.46301571 11.39793251 6.67154237 15.26162195 4.046875 21.16796875 C3.72012283 21.94355637 3.39337067 22.71914398 3.05671692 23.51823425 C1.97164862 26.08235013 0.86089573 28.63448046 -0.25 31.1875 C-1.02660324 33.00982092 -1.80138772 34.83291787 -2.57446289 36.65673828 C-4.20504155 40.49615572 -5.84577263 44.33099486 -7.49462891 48.16259766 C-9.9318031 53.83092497 -12.33635787 59.5125892 -14.73046875 65.19921875 C-15.31137772 66.57870949 -15.31137772 66.57870949 -15.90402222 67.98606873 C-16.68772815 69.84718969 -17.47138901 71.70832964 -18.25500488 73.56948853 C-19.84737762 77.34744915 -21.44516288 81.12311024 -23.04293823 84.89878845 C-28.05901687 96.75321043 -33.03658868 108.6234455 -38 120.5 C-44.53101072 136.12585314 -51.10275025 151.73406317 -57.69775391 167.33300781 C-63.49362512 181.04351834 -69.25956031 194.76619291 -75 208.5 C-81.13583818 223.17978456 -87.30426093 237.84539716 -93.5 252.5 C-100.65703143 269.42839936 -107.77545923 286.37258503 -114.86328125 303.33007812 C-115.55857785 304.99349623 -116.25389003 306.65690782 -116.94921875 308.3203125 C-117.28166595 309.11564392 -117.61411316 309.91097534 -117.95663452 310.73040771 C-121.62158831 319.49374326 -125.30968445 328.24732059 -129 337 C-121.01737632 334.71651132 -113.20711402 332.02164426 -105.38671875 329.23828125 C-104.0676388 328.77074972 -102.74848408 328.30342912 -101.42926025 327.83630371 C-97.91065204 326.58971496 -94.39310455 325.34015917 -90.87577438 324.08996964 C-87.1847851 322.77860205 -83.49284472 321.46991723 -79.80102539 320.16088867 C-73.19352725 317.81755963 -66.58688912 315.47181765 -59.98073673 313.12469769 C-54.818893 311.29074649 -49.65651256 309.45831158 -44.493927 307.62644958 C-24.8467082 300.65432466 -5.21168293 293.64826424 14.41986084 286.63214111 C35.89531289 278.95719992 57.3775935 271.30180355 78.86909866 263.67194366 C80.92159996 262.94314575 82.97398457 262.21402018 85.02633667 261.48480225 C88.85961614 260.12288354 92.69344082 258.76250638 96.52734375 257.40234375 C97.65922119 257.000121 98.79109863 256.59789825 99.95727539 256.18348694 C104.66825769 254.51360686 109.38191401 252.851767 114.11254883 251.23828125 C114.80431717 251.00206055 115.49608551 250.76583984 116.20881653 250.52246094 C119.94061238 249.43395293 123.32036924 249.94255271 127 251 C130.58000272 253.20893785 132.41196632 255.15127208 134 259 C134.3359375 261.3671875 134.3359375 261.3671875 134.375 263.875 C134.40335938 264.69742187 134.43171875 265.51984375 134.4609375 266.3671875 C133.33179153 272.81671615 127.53769747 278.14014061 123.4375 283.0625 C122.81834717 283.81055908 122.19919434 284.55861816 121.5612793 285.3293457 C117.40489254 290.34150634 113.19693931 295.30789599 108.9699707 300.26049805 C105.75113088 304.05461487 102.67239485 307.9424356 99.625 311.875 C95.14985882 317.64731864 90.44177867 323.17757334 85.62988281 328.67089844 C81.96987855 332.85594814 78.45092987 337.12287526 75.01171875 341.4921875 C72.62906911 344.46240316 70.16142373 347.35600849 67.6875 350.25 C63.88244997 354.70629393 60.2120111 359.24172304 56.625 363.875 C52.15015437 369.64753471 47.44176257 375.17759172 42.62988281 380.67089844 C38.96987855 384.85594814 35.45092987 389.12287526 32.01171875 393.4921875 C29.62906911 396.46240316 27.16142373 399.35600849 24.6875 402.25 C20.88244997 406.70629393 17.2120111 411.24172304 13.625 415.875 C9.15015437 421.64753471 4.44176257 427.17759172 -0.37011719 432.67089844 C-4.03012145 436.85594814 -7.54907013 441.12287526 -10.98828125 445.4921875 C-13.37093089 448.46240316 -15.83857627 451.35600849 -18.3125 454.25 C-22.11755003 458.70629393 -25.7879889 463.24172304 -29.375 467.875 C-33.84984563 473.64753471 -38.55823743 479.17759172 -43.37011719 484.67089844 C-47.03012145 488.85594814 -50.54907013 493.12287526 -53.98828125 497.4921875 C-56.37093089 500.46240316 -58.83857627 503.35600849 -61.3125 506.25 C-65.11755003 510.70629393 -68.7879889 515.24172304 -72.375 519.875 C-76.84984563 525.64753471 -81.55823743 531.17759172 -86.37011719 536.67089844 C-90.03012145 540.85594814 -93.54907013 545.12287526 -96.98828125 549.4921875 C-99.37093089 552.46240316 -101.83857627 555.35600849 -104.3125 558.25 C-108.11754802 562.70629157 -111.78802957 567.24169421 -115.375 571.875 C-119.78007931 577.55846261 -124.41914987 582.99233412 -129.16357422 588.39404297 C-132.74822587 592.49670173 -136.17101547 596.68796372 -139.5 601 C-143.92895395 606.73608508 -148.59607184 612.22091099 -153.37060547 617.67138672 C-157.03037858 621.85632906 -160.54921326 626.12305709 -163.98828125 630.4921875 C-166.37093089 633.46240316 -168.83857627 636.35600849 -171.3125 639.25 C-175.11755003 643.70629393 -178.7879889 648.24172304 -182.375 652.875 C-186.84984563 658.64753471 -191.55823743 664.17759172 -196.37011719 669.67089844 C-200.03012145 673.85594814 -203.54907013 678.12287526 -206.98828125 682.4921875 C-209.37093089 685.46240316 -211.83857627 688.35600849 -214.3125 691.25 C-218.11755003 695.70629393 -221.7879889 700.24172304 -225.375 704.875 C-229.84984563 710.64753471 -234.55823743 716.17759172 -239.37011719 721.67089844 C-243.03012145 725.85594814 -246.54907013 730.12287526 -249.98828125 734.4921875 C-252.37093089 737.46240316 -254.83857627 740.35600849 -257.3125 743.25 C-261.11755003 747.70629393 -264.7879889 752.24172304 -268.375 756.875 C-272.84984563 762.64753471 -277.55823743 768.17759172 -282.37011719 773.67089844 C-286.03012145 777.85594814 -289.54907013 782.12287526 -292.98828125 786.4921875 C-295.37092992 789.46240196 -297.83854451 792.35603639 -300.3125 795.25 C-304.22311908 799.82904867 -307.99408506 804.49424568 -311.6875 809.25 C-323.26546639 824.13273319 -323.26546639 824.13273319 -327 826 C-331.63213493 826.55512815 -334.98172127 826.6364242 -339 824.125 C-342.04225746 820.89260145 -342.30040722 818.70129629 -342.23452759 814.27243042 C-341.81478228 810.20535236 -340.2778454 806.63508465 -338.73046875 802.87890625 C-338.38293549 802.00332062 -338.03540222 801.12773499 -337.67733765 800.22561646 C-336.52627723 797.33286359 -335.35666801 794.44797605 -334.1875 791.5625 C-333.36748904 789.50884568 -332.54907869 787.4545516 -331.73217773 785.3996582 C-330.0203626 781.09499881 -328.30316729 776.79254199 -326.58300781 772.49121094 C-322.90057108 763.2611624 -319.31727778 753.99291841 -315.73574829 744.72335815 C-314.15411065 740.63076535 -312.56876842 736.53961139 -310.98353577 732.44841003 C-309.78569588 729.3568615 -308.58835878 726.26511861 -307.39111328 723.17333984 C-303.82589103 713.96756242 -300.25601807 704.76358837 -296.68649292 695.55947876 C-294.70747119 690.45639314 -292.72875086 685.35319066 -290.75 680.25 C-289.95833478 678.20833277 -289.16666811 676.16666611 -288.375 674.125 C-287.983125 673.114375 -287.59125 672.10375 -287.1875 671.0625 C-264.62500002 612.87500006 -264.62500002 612.87500006 -263.43759155 609.81274414 C-262.64561249 607.77026647 -261.85364065 605.727786 -261.06167603 603.68530273 C-259.08734808 598.59352147 -257.11289626 593.50178832 -255.13818359 588.41015625 C-251.51788425 579.07514478 -247.89865253 569.73972472 -244.28379822 560.40260315 C-234.92891245 536.23930305 -225.54155958 512.09028307 -216 488 C-229.1369833 492.30544965 -242.18960139 496.79848851 -255.17773438 501.53359985 C-259.18540494 502.99465752 -263.19533457 504.44947396 -267.20507812 505.90483093 C-269.37836467 506.69368347 -271.55153997 507.48284259 -273.72460938 508.27229309 C-282.04117402 511.29273151 -290.36308862 514.29813551 -298.6875 517.296875 C-299.31031042 517.52123419 -299.93312084 517.74559338 -300.57480431 517.97675133 C-303.11806634 518.89290544 -305.66135093 519.80899687 -308.20466137 520.72501659 C-328.73920018 528.12098491 -349.26503859 535.5399854 -369.77368164 543.00753784 C-373.15661747 544.23876028 -376.54011695 545.46841993 -379.92382812 546.69750977 C-382.15105222 547.50664414 -384.37826579 548.31580745 -386.60546875 549.125 C-388.24719559 549.72144569 -388.24719559 549.72144569 -389.92208862 550.3299408 C-396.8614731 552.85306097 -403.79517154 555.39127133 -410.72590637 557.93804932 C-415.37246422 559.64329914 -420.02226885 561.33956798 -424.67276001 563.03405762 C-426.86823721 563.83639643 -429.06226607 564.64271105 -431.25473022 565.45324707 C-434.27033758 566.56766687 -437.29068679 567.66816563 -440.3125 568.765625 C-441.19525101 569.09578613 -442.07800201 569.42594727 -442.98750305 569.76611328 C-447.80898655 571.49923612 -451.79795376 572.5231566 -457 572 C-460.82001478 569.94306897 -463.95400772 567.87661696 -466 564 C-467.36526778 557.95381414 -467.15344668 555.48699722 -464 550 C-462.72112938 548.27086034 -461.38407732 546.58363608 -460 544.9375 C-459.20722656 543.98875 -458.41445313 543.04 -457.59765625 542.0625 C-456.73259564 541.04096763 -455.86668374 540.02015565 -455 539 C-454.08200918 537.91668537 -453.16404085 536.83335168 -452.24609375 535.75 C-450.83513532 534.08554651 -449.42382394 532.42140377 -448.01098633 530.75854492 C-444.69306773 526.84535439 -441.47036001 522.86671907 -438.28125 518.84765625 C-431.03716293 509.80495167 -423.63218417 500.88768874 -416.125 492.0625 C-412.43008666 487.71860491 -408.82597613 483.31488282 -405.28125 478.84765625 C-398.03716293 469.80495167 -390.63218417 460.88768874 -383.125 452.0625 C-379.43008666 447.71860491 -375.82597613 443.31488282 -372.28125 438.84765625 C-365.03716293 429.80495167 -357.63218417 420.88768874 -350.125 412.0625 C-346.43008666 407.71860491 -342.82597613 403.31488282 -339.28125 398.84765625 C-332.03716293 389.80495167 -324.63218417 380.88768874 -317.125 372.0625 C-313.43008666 367.71860491 -309.82597613 363.31488282 -306.28125 358.84765625 C-299.03716293 349.80495167 -291.63218417 340.88768874 -284.125 332.0625 C-280.43008666 327.71860491 -276.82597613 323.31488282 -273.28125 318.84765625 C-266.03716293 309.80495167 -258.63218417 300.88768874 -251.125 292.0625 C-247.42585616 287.71363136 -243.81754984 283.30499155 -240.26953125 278.83203125 C-235.53174817 272.91999556 -230.68314636 267.09767545 -225.85986328 261.25537109 C-224.02742127 259.03325252 -222.19861665 256.80819649 -220.37109375 254.58203125 C-214.9976702 248.0391324 -209.6111392 241.51135574 -204.125 235.0625 C-200.43007002 230.71862079 -196.82597536 226.31488186 -193.28125 221.84765625 C-186.03716293 212.80495167 -178.63218417 203.88768874 -171.125 195.0625 C-167.43008666 190.71860491 -163.82597613 186.31488282 -160.28125 181.84765625 C-153.03716293 172.80495167 -145.63218417 163.88768874 -138.125 155.0625 C-134.43008666 150.71860491 -130.82597613 146.31488282 -127.28125 141.84765625 C-120.03716293 132.80495167 -112.63218417 123.88768874 -105.125 115.0625 C-101.43008666 110.71860491 -97.82597613 106.31488282 -94.28125 101.84765625 C-87.03716293 92.80495167 -79.63218417 83.88768874 -72.125 75.0625 C-68.43008666 70.71860491 -64.82597613 66.31488282 -61.28125 61.84765625 C-54.03716293 52.80495167 -46.63218417 43.88768874 -39.125 35.0625 C-35.44159508 30.73213469 -31.8494532 26.34129111 -28.3125 21.890625 C-25.12676866 17.90846082 -21.91326303 13.94977952 -18.6875 10 C-18.07608154 9.24493164 -17.46466309 8.48986328 -16.8347168 7.71191406 C-16.25375244 7.00260742 -15.67278809 6.29330078 -15.07421875 5.5625 C-14.29437622 4.60537109 -14.29437622 4.60537109 -13.4987793 3.62890625 C-9.52103545 -0.69419311 -5.51602084 -0.89271206 0 0 Z " fill="#FFAC30" transform="translate(613,4)"/>
</svg>
